# xmcd
# Copyright (C) 1995-1998 Ti Kan
#
# Track frame offsets:
#       150
#       17842
#       36579
#       54619
#       70604
#       82403
#       100652
#       116754
#       131116
#       143193
#       156859
#       171890
#       188439
#       200391
#       213534
#       232076
#       248556
#       263218
#       279280
#       290493
#
# Disc length: 4126 seconds
#
# Revision: 0
# Processed by: cddbd v1.5.2PL0 Copyright (c) Steve Scherf et al.
# Submitted via: CD-Transfer v1.0
#
DISCID=2e101c14
DTITLE=Juice Newton - Greatest Hits [CD)
DYEAR=1900
DGENRE=
TTITLE0=A Little Love (Radio Edit)
TTITLE1=Angel Of The Morning (Radio Edit)
TTITLE2=Break It To Me Gently (Radio Edit)
TTITLE3=Cheap Love (Radio Edit)
TTITLE4=Crazy Little Thing Called Love (Radio Edit)
TTITLE5=Heart Of The Night (Radio Edit)
TTITLE6=Hurt (Radio Edit)
TTITLE7=Love's Been A Little Beard (Radio Edit)
TTITLE8=Night Time Without You (Radio Edit)
TTITLE9=Old Flame (Radio Edit)
TTITLE10=Queen Of Hearts (Radio Edit)
TTITLE11=Ride Em Cowboy (Radio Edit)
TTITLE12=Stuck In The Middle (Radio Edit)
TTITLE13=Sunshine (Radio Edit)
TTITLE14=Sweetest Thing (Radio Edit)
TTITLE15=Tell Her No (Radio Edit)
TTITLE16=Tell Me True (Radio Edit)
TTITLE17=What Can I Do With My Heart (Radio Edit)
TTITLE18=When Love Comes Around The Bend (Radio Edit)
TTITLE19=You Make Me Want To Make You Mine (Radio Edit)
EXTD=
EXTT0=
EXTT1=
EXTT2=
EXTT3=
EXTT4=
EXTT5=
EXTT6=
EXTT7=
EXTT8=
EXTT9=
EXTT10=
EXTT11=
EXTT12=
EXTT13=
EXTT14=
EXTT15=
EXTT16=
EXTT17=
EXTT18=
EXTT19=
PLAYORDER=
